<?xml version="1.0" encoding="UTF-8" standalone="no"?>
<!DOCTYPE svg PUBLIC "-//W3C//DTD SVG 1.1//EN" "http://www.w3.org/Graphics/SVG/1.1/DTD/svg11.dtd">
<svg version="1.1" xmlns="http://www.w3.org/2000/svg" xmlns:xlink="http://www.w3.org/1999/xlink" preserveAspectRatio="xMidYMid meet" viewBox="0 0 640 640" width="640" height="640"><defs><path d="M17.5 35C27.15 35 35 27.15 35 17.5C35 7.85 27.15 0 17.5 0C7.85 0 0 7.85 0 17.5C0 27.15 7.85 35 17.5 35ZM17.5 1.17C26.51 1.17 33.83 8.49 33.83 17.5C33.83 26.51 26.51 33.83 17.5 33.83C8.49 33.83 1.17 26.51 1.17 17.5C1.17 8.49 8.49 1.17 17.5 1.17Z" id="a1n7BqiAUg"></path><path d="M17.5 35C27.16 34.99 34.99 27.16 35 17.5C35 7.84 27.16 0 17.5 0C7.84 0 0 7.84 0 17.5C0 27.16 7.84 35 17.5 35ZM17.5 1.17C26.52 1.18 33.82 8.48 33.83 17.5C33.83 26.52 26.52 33.83 17.5 33.83C8.48 33.83 1.17 26.52 1.17 17.5C1.17 8.48 8.48 1.17 17.5 1.17Z" id="a16hKXTO5I"></path><path d="M14 24.5C14 24.82 14.26 25.08 14.58 25.08C14.91 25.08 15.17 24.82 15.17 24.5C15.17 23.1 15.17 11.9 15.17 10.5C15.17 10.18 14.91 9.92 14.58 9.92C14.26 9.92 14 10.18 14 10.5C14 11.9 14 23.1 14 24.5Z" id="g9y10fKLQ"></path><path d="M19.83 24.5C19.83 24.82 20.09 25.08 20.42 25.08C20.74 25.08 21 24.82 21 24.5C21 23.1 21 11.9 21 10.5C21 10.18 20.74 9.92 20.42 9.92C20.09 9.92 19.83 10.18 19.83 10.5C19.83 11.9 19.83 23.1 19.83 24.5Z" id="a1R8R8vFxX"></path></defs><g><g><g><use xlink:href="#a1n7BqiAUg" opacity="1" fill="#ffffff" fill-opacity="1"></use><g><use xlink:href="#a1n7BqiAUg" opacity="1" fill-opacity="0" stroke="#000000" stroke-width="1" stroke-opacity="0"></use></g></g><g><use xlink:href="#a16hKXTO5I" opacity="1" fill="#ffffff" fill-opacity="1"></use><g><use xlink:href="#a16hKXTO5I" opacity="1" fill-opacity="0" stroke="#000000" stroke-width="1" stroke-opacity="0"></use></g></g><g><use xlink:href="#g9y10fKLQ" opacity="1" fill="#ffffff" fill-opacity="1"></use><g><use xlink:href="#g9y10fKLQ" opacity="1" fill-opacity="0" stroke="#000000" stroke-width="1" stroke-opacity="0"></use></g></g><g><use xlink:href="#a1R8R8vFxX" opacity="1" fill="#ffffff" fill-opacity="1"></use><g><use xlink:href="#a1R8R8vFxX" opacity="1" fill-opacity="0" stroke="#000000" stroke-width="1" stroke-opacity="0"></use></g></g></g></g></svg>