<?xml version="1.0" encoding="UTF-8" standalone="no"?>
<!DOCTYPE svg PUBLIC "-//W3C//DTD SVG 1.1//EN" "http://www.w3.org/Graphics/SVG/1.1/DTD/svg11.dtd">
<svg version="1.1" xmlns="http://www.w3.org/2000/svg" xmlns:xlink="http://www.w3.org/1999/xlink" preserveAspectRatio="xMidYMid meet" viewBox="0 0 640 640" width="640" height="640"><defs><path d="M22.53 14.12C22.2 14.29 22 14.63 22 15C22 18 22 42 22 45C22 45.37 22.2 45.71 22.53 45.88C22.68 45.96 22.84 46 23 46C23.2 46 23.39 45.94 23.56 45.83C25.76 44.33 43.36 32.33 45.56 30.83C45.84 30.64 46 30.33 46 30C46 29.67 45.84 29.36 45.56 29.17C41.16 26.17 25.76 15.67 23.56 14.17C23.26 13.97 22.86 13.94 22.53 14.12ZM43.23 30L24 43.11L24 16.89L43.23 30Z" id="a7v06fFrK"></path><path d="M30 60C46.54 60 60 46.54 60 30C60 13.46 46.54 0 30 0C13.46 0 0 13.46 0 30C0 46.54 13.46 60 30 60ZM30 2C45.44 2 58 14.56 58 30C58 45.44 45.44 58 30 58C14.56 58 2 45.44 2 30C2 14.56 14.56 2 30 2Z" id="a171RpZzPc"></path></defs><g><g><g><use xlink:href="#a7v06fFrK" opacity="1" fill="#ff7474" fill-opacity="1"></use><g><use xlink:href="#a7v06fFrK" opacity="1" fill-opacity="0" stroke="#000000" stroke-width="1" stroke-opacity="0"></use></g></g><g><use xlink:href="#a171RpZzPc" opacity="1" fill="#ff7474" fill-opacity="1"></use><g><use xlink:href="#a171RpZzPc" opacity="1" fill-opacity="0" stroke="#000000" stroke-width="1" stroke-opacity="0"></use></g></g></g></g></svg>