<?xml version="1.0" encoding="UTF-8" standalone="no"?>
<!DOCTYPE svg PUBLIC "-//W3C//DTD SVG 1.1//EN" "http://www.w3.org/Graphics/SVG/1.1/DTD/svg11.dtd">
<svg version="1.1" xmlns="http://www.w3.org/2000/svg" xmlns:xlink="http://www.w3.org/1999/xlink" preserveAspectRatio="xMidYMid meet" viewBox="0 0 640 640" width="640" height="640"><defs><path d="M13.14 8.23C12.95 8.34 12.83 8.53 12.83 8.75C12.83 10.5 12.83 24.5 12.83 26.25C12.83 26.47 12.95 26.66 13.14 26.77C13.23 26.81 13.32 26.83 13.42 26.83C13.53 26.83 13.65 26.8 13.75 26.73C15.03 25.86 25.3 18.86 26.58 17.98C26.74 17.87 26.83 17.69 26.83 17.5C26.83 17.31 26.74 17.13 26.58 17.02C24.01 15.27 15.03 9.14 13.75 8.27C13.57 8.15 13.34 8.13 13.14 8.23ZM25.21 17.5L14 25.15L14 9.85L25.21 17.5Z" id="k3vANHBh1H"></path><path d="M17.5 35C27.15 35 35 27.15 35 17.5C35 7.85 27.15 0 17.5 0C7.85 0 0 7.85 0 17.5C0 27.15 7.85 35 17.5 35ZM17.5 1.17C26.51 1.17 33.83 8.49 33.83 17.5C33.83 26.51 26.51 33.83 17.5 33.83C8.49 33.83 1.17 26.51 1.17 17.5C1.17 8.49 8.49 1.17 17.5 1.17Z" id="a2ejJrKjB6"></path></defs><g><g><g><use xlink:href="#k3vANHBh1H" opacity="1" fill="#ffffff" fill-opacity="1"></use><g><use xlink:href="#k3vANHBh1H" opacity="1" fill-opacity="0" stroke="#000000" stroke-width="1" stroke-opacity="0"></use></g></g><g><use xlink:href="#a2ejJrKjB6" opacity="1" fill="#ffffff" fill-opacity="1"></use><g><use xlink:href="#a2ejJrKjB6" opacity="1" fill-opacity="0" stroke="#000000" stroke-width="1" stroke-opacity="0"></use></g></g></g></g></svg>